name analog
datacolumns 19
datarows 58
range 0.36 0.3885
endheader
time	ground_force_vx	ground_force_vy	ground_force_vz	ground_force_px	ground_force_py	ground_force_pz	l_ground_force_vx	l_ground_force_vy	l_ground_force_vz	l_ground_force_px	l_ground_force_py	l_ground_force_pz	ground_torque_x	ground_torque_y	ground_torque_z	l_ground_torque_x	l_ground_torque_y	l_ground_torque_z
0.36	-0.0	-0.0	-0.0	5.388794422149658	-9.23582649230957	-798.1102905273438	-0.0	-0.0	-0.0	-0.0	-0.0	-0.0	-0.0	-0.0	-0.0	-0.0	-0.0	-0.0
0.3605	-0.0	-0.0	-0.0	5.177009582519531	-10.213784217834473	-801.4976806640625	-0.0	-0.0	-0.0	-0.0	-0.0	-0.0	-0.0	-0.0	-0.0	-0.0	-0.0	-0.0
0.361	-0.0	-0.0	-0.0	5.706454753875732	-10.645788192749023	-803.9033813476562	-0.0	-0.0	-0.0	-0.0	-0.0	-0.0	-0.0	-0.0	-0.0	-0.0	-0.0	-0.0
0.3615	-0.0	-0.0	-0.0	5.745840549468994	-10.378877639770508	-805.8126220703125	-0.0	-0.0	-0.0	-0.0	-0.0	-0.0	-0.0	-0.0	-0.0	-0.0	-0.0	-0.0
0.362	-0.0	-0.0	-0.0	5.871545314788818	-9.91353988647461	-804.2406005859375	-0.0	-0.0	-0.0	-0.0	-0.0	-0.0	-0.0	-0.0	-0.0	-0.0	-0.0	-0.0
0.3625	-0.0	-0.0	-0.0	6.220571041107178	-8.880546569824219	-802.713623046875	-0.0	-0.0	-0.0	-0.0	-0.0	-0.0	-0.0	-0.0	-0.0	-0.0	-0.0	-0.0
0.363	-0.0	-0.0	-0.0	6.565022945404053	-8.227821350097656	-801.9906616210938	-0.0	-0.0	-0.0	-0.0	-0.0	-0.0	-0.0	-0.0	-0.0	-0.0	-0.0	-0.0
0.3635	-0.0	-0.0	-0.0	6.914948463439941	-7.4023895263671875	-799.2462158203125	-0.0	-0.0	-0.0	-0.0	-0.0	-0.0	-0.0	-0.0	-0.0	-0.0	-0.0	-0.0
0.364	-0.0	-0.0	-0.0	7.251710891723633	-6.554140090942383	-798.7285766601562	-0.0	-0.0	-0.0	-0.0	-0.0	-0.0	-0.0	-0.0	-0.0	-0.0	-0.0	-0.0
0.3645	-0.0	-0.0	-0.0	7.498969554901123	-6.00316333770752	-793.76171875	-0.0	-0.0	-0.0	-0.0	-0.0	-0.0	-0.0	-0.0	-0.0	-0.0	-0.0	-0.0
0.365	-0.0	-0.0	-0.0	7.4679059982299805	-5.6308417320251465	-793.6572265625	-0.0	-0.0	-0.0	-0.0	-0.0	-0.0	-0.0	-0.0	-0.0	-0.0	-0.0	-0.0
0.3655	-0.0	-0.0	-0.0	7.419952392578125	-5.169563293457031	-792.0599975585938	-0.0	-0.0	-0.0	-0.0	-0.0	-0.0	-0.0	-0.0	-0.0	-0.0	-0.0	-0.0
0.366	-0.0	-0.0	-0.0	6.970860481262207	-4.687016010284424	-793.4491577148438	-0.0	-0.0	-0.0	-0.0	-0.0	-0.0	-0.0	-0.0	-0.0	-0.0	-0.0	-0.0
0.3665	-0.0	-0.0	-0.0	6.527632236480713	-5.104498863220215	-797.0062866210938	-0.0	-0.0	-0.0	-0.0	-0.0	-0.0	-0.0	-0.0	-0.0	-0.0	-0.0	-0.0
0.367	-0.0	-0.0	-0.0	5.159104824066162	-5.021484851837158	-800.1263427734375	-0.0	-0.0	-0.0	-0.0	-0.0	-0.0	-0.0	-0.0	-0.0	-0.0	-0.0	-0.0
0.3675	-0.0	-0.0	-0.0	4.400454998016357	-5.392836570739746	-804.1312866210938	-0.0	-0.0	-0.0	-0.0	-0.0	-0.0	-0.0	-0.0	-0.0	-0.0	-0.0	-0.0
0.368	-0.0	-0.0	-0.0	3.441911458969116	-4.9988112449646	-806.60400390625	-0.0	-0.0	-0.0	-0.0	-0.0	-0.0	-0.0	-0.0	-0.0	-0.0	-0.0	-0.0
0.3685	-0.0	-0.0	-0.0	2.460654735565185	-3.795401096343994	-808.8711547851562	-0.0	-0.0	-0.0	-0.0	-0.0	-0.0	-0.0	-0.0	-0.0	-0.0	-0.0	-0.0
0.369	-0.0	-0.0	-0.0	1.3980793952941897	-2.6233742237091064	-810.7535400390625	-0.0	-0.0	-0.0	-0.0	-0.0	-0.0	-0.0	-0.0	-0.0	-0.0	-0.0	-0.0
0.3695	-0.0	-0.0	-0.0	0.5207790732383728	-1.9151513576507568	-810.6958618164062	-0.0	-0.0	-0.0	-0.0	-0.0	-0.0	-0.0	-0.0	-0.0	-0.0	-0.0	-0.0
0.37	-0.0	-0.0	-0.0	0.2302048057317733	-1.06086003780365	-812.815185546875	-0.0	-0.0	-0.0	-0.0	-0.0	-0.0	-0.0	-0.0	-0.0	-0.0	-0.0	-0.0
0.3705	-0.0	-0.0	-0.0	-0.066010445356369	-0.7273005247116089	-813.3380126953125	-0.0	-0.0	-0.0	-0.0	-0.0	-0.0	-0.0	-0.0	-0.0	-0.0	-0.0	-0.0
0.371	-0.0	-0.0	-0.0	0.7043530941009521	0.0798078477382659	-811.7002563476562	-0.0	-0.0	-0.0	-0.0	-0.0	-0.0	-0.0	-0.0	-0.0	-0.0	-0.0	-0.0
0.3715	-0.0	-0.0	-0.0	1.558645248413086	0.6379224061965942	-810.7523193359375	-0.0	-0.0	-0.0	-0.0	-0.0	-0.0	-0.0	-0.0	-0.0	-0.0	-0.0	-0.0
0.372	-0.0	-0.0	-0.0	2.037945508956909	1.5389564037322998	-807.46337890625	-0.0	-0.0	-0.0	-0.0	-0.0	-0.0	-0.0	-0.0	-0.0	-0.0	-0.0	-0.0
0.3725	-0.0	-0.0	-0.0	3.8772592544555664	1.6797541379928589	-805.5084228515625	-0.0	-0.0	-0.0	-0.0	-0.0	-0.0	-0.0	-0.0	-0.0	-0.0	-0.0	-0.0
0.373	-0.0	-0.0	-0.0	4.566550731658936	2.225097179412842	-803.85009765625	-0.0	-0.0	-0.0	-0.0	-0.0	-0.0	-0.0	-0.0	-0.0	-0.0	-0.0	-0.0
0.3735	-0.0	-0.0	-0.0	5.022765636444092	2.1121768951416016	-804.5439453125	-0.0	-0.0	-0.0	-0.0	-0.0	-0.0	-0.0	-0.0	-0.0	-0.0	-0.0	-0.0
0.374	-0.0	-0.0	-0.0	4.781604290008545	3.132913827896118	-804.5881958007812	-0.0	-0.0	-0.0	-0.0	-0.0	-0.0	-0.0	-0.0	-0.0	-0.0	-0.0	-0.0
0.3745	-0.0	-0.0	-0.0	3.8493268489837646	3.233365297317505	-806.6177978515625	-0.0	-0.0	-0.0	-0.0	-0.0	-0.0	-0.0	-0.0	-0.0	-0.0	-0.0	-0.0
0.375	-0.0	-0.0	-0.0	2.4086837768554688	3.553407430648804	-808.6314086914062	-0.0	-0.0	-0.0	-0.0	-0.0	-0.0	-0.0	-0.0	-0.0	-0.0	-0.0	-0.0
0.3755	-0.0	-0.0	-0.0	0.5733546614646912	4.189128875732422	-812.4646606445312	-0.0	-0.0	-0.0	-0.0	-0.0	-0.0	-0.0	-0.0	-0.0	-0.0	-0.0	-0.0
0.376	-0.0	-0.0	-0.0	-0.5734177231788635	4.546198844909668	-814.2307739257812	-0.0	-0.0	-0.0	-0.0	-0.0	-0.0	-0.0	-0.0	-0.0	-0.0	-0.0	-0.0
0.3765	-0.0	-0.0	-0.0	-0.7901413440704346	4.138198852539063	-812.9697875976562	-0.0	-0.0	-0.0	-0.0	-0.0	-0.0	-0.0	-0.0	-0.0	-0.0	-0.0	-0.0
0.377	-0.0	-0.0	-0.0	-0.5226091146469116	5.386067867279053	-811.3557739257812	-0.0	-0.0	-0.0	-0.0	-0.0	-0.0	-0.0	-0.0	-0.0	-0.0	-0.0	-0.0
0.3775	-0.0	-0.0	-0.0	0.5218915939331055	5.729310512542725	-811.3037719726562	-0.0	-0.0	-0.0	-0.0	-0.0	-0.0	-0.0	-0.0	-0.0	-0.0	-0.0	-0.0
0.378	-0.0	-0.0	-0.0	1.833678960800171	6.455776214599609	-810.7979736328125	-0.0	-0.0	-0.0	-0.0	-0.0	-0.0	-0.0	-0.0	-0.0	-0.0	-0.0	-0.0
0.3785	-0.0	-0.0	-0.0	3.288508176803589	6.735480308532715	-810.9497680664062	-0.0	-0.0	-0.0	-0.0	-0.0	-0.0	-0.0	-0.0	-0.0	-0.0	-0.0	-0.0
0.379	-0.0	-0.0	-0.0	4.588281154632568	6.699071884155273	-811.4548950195312	-0.0	-0.0	-0.0	-0.0	-0.0	-0.0	-0.0	-0.0	-0.0	-0.0	-0.0	-0.0
0.3795	-0.0	-0.0	-0.0	5.441841125488281	6.785933494567871	-810.8436279296875	-0.0	-0.0	-0.0	-0.0	-0.0	-0.0	-0.0	-0.0	-0.0	-0.0	-0.0	-0.0
0.38	-0.0	-0.0	-0.0	6.2447357177734375	7.41264533996582	-810.45361328125	-0.0	-0.0	-0.0	-0.0	-0.0	-0.0	-0.0	-0.0	-0.0	-0.0	-0.0	-0.0
0.3805	-0.0	-0.0	-0.0	7.039371013641357	7.866949558258057	-809.4884033203125	-0.0	-0.0	-0.0	-0.0	-0.0	-0.0	-0.0	-0.0	-0.0	-0.0	-0.0	-0.0
0.381	-0.0	-0.0	-0.0	7.2377119064331055	7.436563491821289	-809.089111328125	-0.0	-0.0	-0.0	-0.0	-0.0	-0.0	-0.0	-0.0	-0.0	-0.0	-0.0	-0.0
0.3815	-0.0	-0.0	-0.0	7.482182502746582	8.428567886352539	-806.5091552734375	-0.0	-0.0	-0.0	-0.0	-0.0	-0.0	-0.0	-0.0	-0.0	-0.0	-0.0	-0.0
0.382	-0.0	-0.0	-0.0	6.21061372756958	9.470550537109377	-803.7474975585938	-0.0	-0.0	-0.0	-0.0	-0.0	-0.0	-0.0	-0.0	-0.0	-0.0	-0.0	-0.0
0.3825	-0.0	-0.0	-0.0	5.213171005249023	10.528664588928224	-802.48974609375	-0.0	-0.0	-0.0	-0.0	-0.0	-0.0	-0.0	-0.0	-0.0	-0.0	-0.0	-0.0
0.383	-0.0	-0.0	-0.0	4.655734539031982	11.25266456604004	-804.4334106445312	-0.0	-0.0	-0.0	-0.0	-0.0	-0.0	-0.0	-0.0	-0.0	-0.0	-0.0	-0.0
0.3835	-0.0	-0.0	-0.0	3.429084539413452	11.597982406616213	-803.3969116210938	-0.0	-0.0	-0.0	-0.0	-0.0	-0.0	-0.0	-0.0	-0.0	-0.0	-0.0	-0.0
0.384	-0.0	-0.0	-0.0	2.202028274536133	12.35001277923584	-807.01611328125	-0.0	-0.0	-0.0	-0.0	-0.0	-0.0	-0.0	-0.0	-0.0	-0.0	-0.0	-0.0
0.3845	-0.0	-0.0	-0.0	0.8813515901565552	11.540797233581545	-808.34375	-0.0	-0.0	-0.0	-0.0	-0.0	-0.0	-0.0	-0.0	-0.0	-0.0	-0.0	-0.0
0.385	-0.0	-0.0	-0.0	-0.0606054663658142	11.340875625610352	-810.85888671875	-0.0	-0.0	-0.0	-0.0	-0.0	-0.0	-0.0	-0.0	-0.0	-0.0	-0.0	-0.0
0.3855	-0.0	-0.0	-0.0	-1.2699599266052246	10.51738739013672	-812.2828369140625	-0.0	-0.0	-0.0	-0.0	-0.0	-0.0	-0.0	-0.0	-0.0	-0.0	-0.0	-0.0
0.386	-0.0	-0.0	-0.0	-2.340233325958252	9.180431365966797	-813.9237060546875	-0.0	-0.0	-0.0	-0.0	-0.0	-0.0	-0.0	-0.0	-0.0	-0.0	-0.0	-0.0
0.3865	-0.0	-0.0	-0.0	-3.010852098464966	8.506811141967773	-811.6482543945312	-0.0	-0.0	-0.0	-0.0	-0.0	-0.0	-0.0	-0.0	-0.0	-0.0	-0.0	-0.0
0.387	-0.0	-0.0	-0.0	-2.6763153076171875	7.972108840942383	-809.7252197265625	-0.0	-0.0	-0.0	-0.0	-0.0	-0.0	-0.0	-0.0	-0.0	-0.0	-0.0	-0.0
0.3875	-0.0	-0.0	-0.0	-2.428697347640991	8.23956298828125	-805.9566650390625	-0.0	-0.0	-0.0	-0.0	-0.0	-0.0	-0.0	-0.0	-0.0	-0.0	-0.0	-0.0
0.388	-0.0	-0.0	-0.0	-1.774289846420288	8.685295104980469	-804.6615600585938	-0.0	-0.0	-0.0	-0.0	-0.0	-0.0	-0.0	-0.0	-0.0	-0.0	-0.0	-0.0
0.3885	-0.0	-0.0	-0.0	-0.9220703840255736	9.239623069763184	-802.1102905273438	-0.0	-0.0	-0.0	-0.0	-0.0	-0.0	-0.0	-0.0	-0.0	-0.0	-0.0	-0.0
